<mxfile host="app.diagrams.net" modified="2023-12-25T21:29:26.731Z" agent="Mozilla/5.0 (Macintosh; Intel Mac OS X 10_15_7) AppleWebKit/537.36 (KHTML, like Gecko) Chrome/120.0.0.0 Safari/537.36" version="22.1.11" etag="JPgslT5g8hOqSyVJ4Ek9" type="github">
  <diagram name="Page-1" id="cOr_iawBpQ-3oXzeAAVZ">
    <mxGraphModel>
      <root>
        <mxCell id="0" />
        <mxCell id="1" parent="0" />
      </root>
    </mxGraphModel>
  </diagram>
</mxfile>
